# xmcd
#
# Track frame offsets: 
#        150
#        28787
#        46730
#        68440
#        86604
#        111662
#        140210
#        151437
#        162347
#        185927
#        192402
#        226850
#        240162
#        255757
#        282047
#        309417
#        323145
#
# Disc length: 4346 seconds
#
# Revision: 0
# Processed by: cddbd v1.5.2PL0 Copyright (c) Steve Scherf et al.
# Submitted via: ExactAudioCopy v0.95b4
#
DISCID=e310f811
DTITLE=David Roe - Street Jams 1980-1998
DYEAR=1998
DGENRE=R&B
TTITLE0=San Francisco Bay Blues
TTITLE1=Do You Know What It Means?
TTITLE2=Jubilee
TTITLE3=Copper Kettle
TTITLE4=Rio's Blues
TTITLE5=Sofas and #2 Pencils
TTITLE6=Sail Away
TTITLE7=If I Ever Cease To Love
TTITLE8=Ponchartrain
TTITLE9=When Irish Guys Are Driving
TTITLE10=St. James Infirmary
TTITLE11=Sunny Side Of The Street
TTITLE12=One Meatball
TTITLE13=Tom Traubert's Blues
TTITLE14=Amazing Saints By The River
TTITLE15=Wonderful World
TTITLE16=Rufus Rastus Johnson Brown
EXTD=
EXTT0=
EXTT1=
EXTT2=
EXTT3=
EXTT4=
EXTT5=
EXTT6=
EXTT7=
EXTT8=
EXTT9=
EXTT10=
EXTT11=
EXTT12=
EXTT13=
EXTT14=
EXTT15=
EXTT16=
PLAYORDER=
